<svg xmlns:xlink="http://www.w3.org/1999/xlink" width="39" xmlns="http://www.w3.org/2000/svg" height="39" id="screenshot-87c702eb-fd65-8038-8002-0d5be722e270" viewBox="0 0 39 39" style="-webkit-print-color-adjust: exact;" fill="none" version="1.1"><g id="shape-87c702eb-fd65-8038-8002-0d5be722e270" width="800px" height="800px" rx="0" ry="0" style="fill: rgb(0, 0, 0);"><g id="shape-87c702eb-fd65-8038-8002-0d5be723e34c" rx="0" ry="0" style="fill: rgb(0, 0, 0);"/><g id="shape-87c702eb-fd65-8038-8002-0d5be72402c4" rx="0" ry="0" style="fill: rgb(0, 0, 0);"/><g id="shape-87c702eb-fd65-8038-8002-0d5be72478a9" rx="0" ry="0" style="fill: rgb(0, 0, 0);"><g id="shape-87c702eb-fd65-8038-8002-0d5be727fc58"><g class="fills" id="fills-87c702eb-fd65-8038-8002-0d5be727fc58"><path fill-rule="evenodd" clip-rule="evenodd" rx="0" ry="0" d="M19.441,0.000C8.705,0.001,0.001,8.705,0.000,19.441C0.000,28.026,5.606,35.302,13.238,37.928C14.194,38.047,14.549,37.450,14.549,36.972L14.549,33.633C9.184,34.827,7.993,31.010,7.993,31.010C7.156,28.743,5.845,28.146,5.845,28.146C4.056,26.954,5.962,26.954,5.962,26.954C7.871,27.073,8.946,28.982,8.946,28.982C10.735,31.963,13.477,31.127,14.552,30.652C14.669,29.340,15.266,28.507,15.744,28.029C11.449,27.551,6.918,25.881,6.918,18.367C6.918,16.222,7.632,14.549,8.946,13.119C8.824,12.760,8.110,10.735,9.184,8.110C9.184,8.110,10.854,7.632,14.549,10.138C16.100,9.660,17.772,9.540,19.441,9.540C21.111,9.540,22.781,9.779,24.331,10.138C28.029,7.634,29.698,8.110,29.698,8.110C30.771,10.735,30.054,12.760,29.935,13.238C31.248,14.669,31.973,16.544,31.963,18.486C31.963,26.001,27.429,27.551,23.139,28.029C23.853,28.624,24.451,29.815,24.451,31.605L24.451,36.972C24.451,37.450,24.806,38.044,25.762,37.928C33.690,35.252,39.020,27.809,39.000,19.441C38.881,8.707,30.176,0.000,19.441,0.000ZZ" style="fill: rgb(255, 255, 255);"/></g><g id="strokes-87c702eb-fd65-8038-8002-0d5be727fc58" class="strokes"><g class="stroke-shape"><path fill-rule="evenodd" clip-rule="evenodd" rx="0" ry="0" d="M19.441,0.000C8.705,0.001,0.001,8.705,0.000,19.441C0.000,28.026,5.606,35.302,13.238,37.928C14.194,38.047,14.549,37.450,14.549,36.972L14.549,33.633C9.184,34.827,7.993,31.010,7.993,31.010C7.156,28.743,5.845,28.146,5.845,28.146C4.056,26.954,5.962,26.954,5.962,26.954C7.871,27.073,8.946,28.982,8.946,28.982C10.735,31.963,13.477,31.127,14.552,30.652C14.669,29.340,15.266,28.507,15.744,28.029C11.449,27.551,6.918,25.881,6.918,18.367C6.918,16.222,7.632,14.549,8.946,13.119C8.824,12.760,8.110,10.735,9.184,8.110C9.184,8.110,10.854,7.632,14.549,10.138C16.100,9.660,17.772,9.540,19.441,9.540C21.111,9.540,22.781,9.779,24.331,10.138C28.029,7.634,29.698,8.110,29.698,8.110C30.771,10.735,30.054,12.760,29.935,13.238C31.248,14.669,31.973,16.544,31.963,18.486C31.963,26.001,27.429,27.551,23.139,28.029C23.853,28.624,24.451,29.815,24.451,31.605L24.451,36.972C24.451,37.450,24.806,38.044,25.762,37.928C33.690,35.252,39.020,27.809,39.000,19.441C38.881,8.707,30.176,0.000,19.441,0.000ZZ" style="fill: none; stroke-width: 1; stroke: rgb(255, 255, 255);"/></g></g></g></g></g></svg>